<svg width="91" height="72" viewBox="0 0 91 72" fill="none" xmlns="http://www.w3.org/2000/svg">
<g id="Group">
<g id="Group_2">
<path id="Vector" fill-rule="evenodd" clip-rule="evenodd" d="M45.6459 24.9866C43.3837 21.0675 50.4576 12.7523 61.4453 6.407C72.4278 0.0667748 83.1695 -1.90307 85.4315 2.01599C86.6832 4.18583 87.9347 6.35568 89.1915 8.53064C91.4538 12.4446 84.3799 20.7598 73.3922 27.1051C62.4045 33.4453 51.668 35.4152 49.4059 31.5012C48.1544 29.3263 46.8976 27.1564 45.6459 24.9866Z" fill="#FE9923"/>
</g>
<g id="Group_3">
<path id="Vector_2" fill-rule="evenodd" clip-rule="evenodd" d="M61.4453 6.407C72.4278 0.0667748 83.1695 -1.90307 85.4315 2.01599C87.6938 5.92993 80.6199 14.2451 69.6322 20.5904C58.6445 26.9358 47.9082 28.9005 45.6459 24.9866C43.3837 21.0675 50.4576 12.7523 61.4453 6.407Z" fill="#FECD3D"/>
</g>
<g id="Group_4">
<path id="Vector_3" fill-rule="evenodd" clip-rule="evenodd" d="M63.3587 9.72076C72.0996 4.67825 80.1584 2.27772 81.3638 4.36026C82.5693 6.44809 76.46 12.2292 67.7188 17.2767C58.9779 22.3243 50.914 24.725 49.7137 22.6372C48.5084 20.5495 54.6178 14.7684 63.3587 9.72076Z" fill="#FEA832"/>
</g>
<g id="Group_5">
<path id="Vector_4" d="M84.6109 13.0141L86.6114 16.4816C87.0885 15.8968 87.5194 15.3224 87.8887 14.758L86.3088 12.0291L84.6109 13.0141ZM82.8975 20.3187C82.4153 20.7495 81.9074 21.1855 81.3843 21.6165L79.476 18.3079L81.1738 17.3333L82.8975 20.3187ZM77.2343 24.6994C76.7008 25.0636 76.152 25.4227 75.5929 25.7767L73.7719 22.622L75.4698 21.6474L77.2343 24.6994ZM71.1454 28.3414C70.5555 28.6543 69.9708 28.9467 69.3911 29.234L67.6213 26.1767L69.3243 25.1919L71.1454 28.3414ZM64.6461 31.2808C64.005 31.5219 63.3791 31.7425 62.7636 31.9425L61.0348 28.9571L62.7378 27.9774L64.6461 31.2808ZM57.5826 33.2402C56.8389 33.3633 56.1257 33.4455 55.4537 33.4864L53.8789 30.7575L55.5819 29.7726L57.5826 33.2402Z" fill="#C85929"/>
</g>
<g id="Group_6">
<path id="Vector_5" fill-rule="evenodd" clip-rule="evenodd" d="M43.9737 41.9914C46.2358 38.0774 39.1621 29.7571 28.1744 23.4169C17.1919 17.0716 6.45021 15.1068 4.18813 19.0208C2.93645 21.1906 1.68495 23.3656 0.428156 25.5354C-1.83411 29.4494 5.23981 37.7697 16.2275 44.1099C27.2152 50.4552 37.9517 52.4199 40.2138 48.506C41.4704 46.3363 42.7219 44.1612 43.9737 41.9914Z" fill="#FE9923"/>
</g>
<g id="Group_7">
<path id="Vector_6" fill-rule="evenodd" clip-rule="evenodd" d="M28.1744 23.4169C17.1919 17.0716 6.45022 15.1068 4.18814 19.0208C1.93117 22.9398 9.0049 31.255 19.9875 37.5952C30.9751 43.9406 41.7168 45.9053 43.9738 41.9914C46.236 38.0774 39.1621 29.7571 28.1744 23.4169Z" fill="#FECD3D"/>
</g>
<g id="Group_8">
<path id="Vector_7" fill-rule="evenodd" clip-rule="evenodd" d="M26.2609 26.7307C17.5251 21.6831 9.4612 19.2825 8.25573 21.3702C7.05026 23.4529 13.1596 29.2391 21.9006 34.2815C30.6415 39.3291 38.7053 41.7296 39.9108 39.642C41.1112 37.5594 35.0018 31.7783 26.2609 26.7307Z" fill="#FEA832"/>
</g>
<g id="Group_9">
<path id="Vector_8" d="M5.009 30.0188L3.00846 33.4864C2.53139 32.9015 2.10564 32.3271 1.73633 31.7679L3.31111 29.0338L5.009 30.0188ZM6.72223 37.3234C7.20442 37.7543 7.71218 38.1904 8.23546 38.6213L10.1436 35.3178L8.44569 34.3381L6.72223 37.3234ZM12.3854 41.7093C12.9189 42.0684 13.4677 42.4275 14.0319 42.7815L15.8529 39.6268L14.1499 38.6522L12.3854 41.7093ZM18.4743 45.3513C19.0642 45.6591 19.6491 45.9566 20.2339 46.2388L21.9984 43.1815L20.2954 42.1966L18.4743 45.3513ZM24.9787 48.2855C25.6149 48.5266 26.2406 48.7473 26.8612 48.9473L28.5849 45.9619L26.8819 44.9873L24.9787 48.2855ZM32.0371 50.2501C32.7861 50.3681 33.4939 50.4501 34.1658 50.4912L35.7406 47.7622L34.0427 46.7774L32.0371 50.2501Z" fill="#C85929"/>
</g>
<g id="Group_10">
<path id="Vector_9" fill-rule="evenodd" clip-rule="evenodd" d="M42.3886 63.4693C40.1314 59.5554 47.2002 51.2402 58.1879 44.8949C69.1756 38.5546 79.9121 36.5848 82.1742 40.4987C83.431 42.6737 84.6827 44.8435 85.9342 47.0134C88.1964 50.9324 81.1225 59.2476 70.14 65.593C59.1523 71.9332 48.4107 73.903 46.1486 69.984C44.8971 67.8141 43.6454 65.6443 42.3886 63.4693Z" fill="#FE9923"/>
</g>
<g id="Group_11">
<path id="Vector_10" fill-rule="evenodd" clip-rule="evenodd" d="M58.1879 44.8947C69.1756 38.5545 79.9121 36.5847 82.1742 40.4986C84.4365 44.4177 77.3626 52.7329 66.3749 59.0782C55.3923 65.4184 44.6509 67.3883 42.3886 63.4692C40.1314 59.5554 47.2002 51.2403 58.1879 44.8947Z" fill="#FECD3D"/>
</g>
<g id="Group_12">
<path id="Vector_11" fill-rule="evenodd" clip-rule="evenodd" d="M60.1014 48.2086C68.8423 43.161 76.9062 40.7654 78.1065 42.8481C79.312 44.9358 73.2026 50.7169 64.4615 55.7646C55.7206 60.8071 47.6618 63.2076 46.4564 61.1251C45.2511 59.0372 51.3604 53.2561 60.1014 48.2086Z" fill="#FEA832"/>
</g>
<g id="Group_13">
<path id="Vector_12" d="M81.3533 51.5018L83.359 54.9695C83.836 54.3847 84.2618 53.8052 84.6311 53.2459L83.0563 50.517L81.3533 51.5018ZM79.645 58.8013C79.1577 59.2373 78.6551 59.6681 78.1267 60.0992L76.2184 56.7956L77.9214 55.821L79.645 58.8013ZM73.9819 63.1872C73.4433 63.5514 72.8944 63.9105 72.3353 64.2644L70.5143 61.1098L72.2173 60.13L73.9819 63.1872ZM67.8879 66.8292C67.303 67.1369 66.7133 67.4345 66.1335 67.7166L64.3688 64.6593L66.0667 63.6745L67.8879 66.8292ZM61.3886 69.7685C60.7526 70.0045 60.1215 70.2249 59.506 70.4302L57.7824 67.4396L59.4803 66.465L61.3886 69.7685ZM54.3302 71.7281C53.5811 71.8512 52.8681 71.9281 52.2012 71.9692L50.6265 69.2403L52.3243 68.2554L54.3302 71.7281Z" fill="#C85929"/>
</g>
<g id="Group_14">
<path id="Vector_13" d="M37.9825 9.19238V12.1113H40.9011V14.6453H37.9825V17.5691H35.4484V14.6453H32.5244V12.1113H35.4484V9.19238H37.9825Z" fill="#FEA832"/>
</g>
<g id="Group_15">
<path id="Vector_14" d="M28.9537 56.0108V58.9297H31.8775V61.4635H28.9537V64.3875H26.4197V61.4635H23.501V58.9297H26.4197V56.0108H28.9537Z" fill="#FEA832"/>
</g>
<g id="Group_16">
<path id="Vector_15" d="M87.2063 27.3821V30.3008H90.1302V32.8351H87.2063V35.7589H84.6721V32.8351H81.7534V30.3008H84.6721V27.3821H87.2063Z" fill="#FEA832"/>
</g>
</g>
</svg>
