<svg width="77" height="77" viewBox="0 0 77 77" fill="none" xmlns="http://www.w3.org/2000/svg">
<g id="contract (1) 1">
<g id="Icons">
<path id="Vector" d="M35.4405 5.88922L5.21031 13.2055C4.55456 13.3636 3.93641 13.6494 3.39118 14.0466C2.84596 14.4438 2.38435 14.9445 2.03275 15.5201C1.68116 16.0958 1.44647 16.7351 1.34209 17.4015C1.23772 18.068 1.26572 18.7484 1.42448 19.404L14.1038 71.7897C14.2619 72.4454 14.5477 73.0636 14.9449 73.6088C15.3421 74.154 15.8428 74.6156 16.4184 74.9672C16.9941 75.3188 17.6334 75.5535 18.2998 75.6579C18.9663 75.7623 19.6467 75.7343 20.3023 75.5755L59.6044 66.0545L35.4405 5.88922Z" fill="#F3D55B"/>
<g id="Group">
<path id="Vector_2" d="M8.57014 22.9178C8.25698 22.9165 7.9551 22.8008 7.72134 22.5924C7.48759 22.384 7.3381 22.0973 7.30102 21.7864C7.26395 21.4754 7.34185 21.1616 7.52006 20.9041C7.69826 20.6466 7.96447 20.4632 8.26855 20.3883L10.7634 19.7839C10.9291 19.7383 11.1023 19.7265 11.2727 19.7491C11.443 19.7717 11.6071 19.8284 11.7552 19.9156C11.9033 20.0029 12.0323 20.119 12.1347 20.2571C12.237 20.3952 12.3106 20.5525 12.351 20.7195C12.3914 20.8866 12.3978 21.0601 12.3699 21.2297C12.342 21.3993 12.2803 21.5615 12.1885 21.7068C12.0967 21.8521 11.9766 21.9775 11.8354 22.0755C11.6942 22.1735 11.5348 22.2422 11.3665 22.2774L8.873 22.8818C8.77393 22.9063 8.67219 22.9184 8.57014 22.9178Z" fill="#3F5C6C"/>
<path id="Vector_3" d="M17.2982 20.8028C16.9842 20.8025 16.6813 20.6871 16.4467 20.4785C16.2121 20.2699 16.0621 19.9825 16.0251 19.6707C15.9881 19.359 16.0666 19.0444 16.2459 18.7867C16.4252 18.529 16.6927 18.3459 16.9979 18.2721L26.6486 15.9364C26.8143 15.8909 26.9875 15.879 27.1579 15.9017C27.3283 15.9243 27.4924 15.981 27.6404 16.0682C27.7885 16.1555 27.9176 16.2716 28.0199 16.4097C28.1222 16.5478 28.1958 16.705 28.2362 16.8721C28.2766 17.0392 28.2831 17.2126 28.2551 17.3822C28.2272 17.5518 28.1655 17.7141 28.0737 17.8594C27.9819 18.0047 27.8618 18.1301 27.7206 18.2281C27.5794 18.3261 27.42 18.3947 27.2517 18.43L17.6023 20.7669C17.5027 20.7909 17.4006 20.8029 17.2982 20.8028Z" fill="#3F5C6C"/>
<path id="Vector_4" d="M10.0793 29.1548C9.76519 29.1548 9.46202 29.0396 9.22717 28.8311C8.99232 28.6226 8.84208 28.3352 8.80492 28.0233C8.76775 27.7115 8.84624 27.3968 9.02551 27.1389C9.20479 26.881 9.4724 26.6979 9.77768 26.6241L12.2725 26.0196C12.6033 25.9395 12.9524 25.994 13.243 26.1713C13.5337 26.3485 13.7419 26.634 13.8221 26.9648C13.9023 27.2956 13.8477 27.6447 13.6705 27.9354C13.4932 28.226 13.2078 28.4343 12.8769 28.5144L10.3821 29.1176C10.2831 29.1425 10.1814 29.155 10.0793 29.1548Z" fill="#3F5C6C"/>
<path id="Vector_5" d="M18.8123 27.0398C18.4993 27.038 18.1978 26.9218 17.9646 26.7132C17.7313 26.5046 17.5822 26.218 17.5455 25.9072C17.5088 25.5964 17.5868 25.2829 17.7651 25.0257C17.9433 24.7684 18.2094 24.5852 18.5132 24.5104L26.6496 22.5456C26.9775 22.4741 27.3203 22.5338 27.6047 22.7121C27.889 22.8903 28.0922 23.1728 28.1708 23.4991C28.2493 23.8254 28.197 24.1694 28.0249 24.4575C27.8528 24.7456 27.5747 24.9549 27.2502 25.0404L19.1215 27.0039C19.0204 27.029 18.9165 27.041 18.8123 27.0398Z" fill="#3F5C6C"/>
<path id="Vector_6" d="M11.5885 35.3918C11.275 35.3902 10.9729 35.274 10.7392 35.0649C10.5056 34.8559 10.3565 34.5685 10.3202 34.2571C10.2838 33.9457 10.3628 33.6318 10.5421 33.3746C10.7214 33.1174 10.9886 32.9347 11.2934 32.861L13.7869 32.2579C13.9524 32.213 14.1251 32.2017 14.295 32.2248C14.4649 32.2478 14.6285 32.3046 14.776 32.3919C14.9236 32.4791 15.0522 32.5951 15.1542 32.7329C15.2562 32.8707 15.3296 33.0275 15.37 33.1941C15.4103 33.3608 15.4169 33.5338 15.3894 33.703C15.3618 33.8722 15.3006 34.0342 15.2093 34.1793C15.1181 34.3245 14.9987 34.4499 14.8582 34.5481C14.7177 34.6464 14.559 34.7155 14.3913 34.7514L11.8978 35.3558C11.7965 35.38 11.6927 35.3921 11.5885 35.3918Z" fill="#3F5C6C"/>
<path id="Vector_7" d="M20.3138 33.2768C19.9999 33.2765 19.6969 33.1612 19.4623 32.9525C19.2277 32.7439 19.0777 32.4565 19.0407 32.1447C19.0037 31.833 19.0823 31.5184 19.2615 31.2607C19.4408 31.003 19.7084 30.8199 20.0135 30.7461L26.6484 29.1419C26.8141 29.0964 26.9873 29.0845 27.1577 29.1072C27.328 29.1298 27.4921 29.1865 27.6402 29.2737C27.7883 29.361 27.9173 29.4771 28.0197 29.6152C28.122 29.7533 28.1956 29.9106 28.236 30.0776C28.2764 30.2447 28.2829 30.4182 28.2549 30.5878C28.227 30.7574 28.1653 30.9196 28.0735 31.0649C27.9817 31.2102 27.8616 31.3356 27.7204 31.4336C27.5792 31.5316 27.4198 31.6003 27.2515 31.6355L20.6167 33.2396C20.5177 33.2645 20.4159 33.2771 20.3138 33.2768Z" fill="#3F5C6C"/>
<path id="Vector_8" d="M13.0975 41.6288C12.7836 41.6284 12.4806 41.5131 12.246 41.3044C12.0114 41.0958 11.8614 40.8084 11.8244 40.4966C11.7874 40.1849 11.866 39.8704 12.0452 39.6126C12.2245 39.3549 12.492 39.1718 12.7972 39.098L15.292 38.5C15.4575 38.4551 15.6303 38.4439 15.8001 38.4669C15.97 38.4899 16.1336 38.5467 16.2812 38.634C16.4287 38.7213 16.5573 38.8372 16.6593 38.975C16.7613 39.1128 16.8347 39.2696 16.8751 39.4363C16.9155 39.6029 16.9221 39.7759 16.8945 39.9451C16.8669 40.1143 16.8057 40.2763 16.7145 40.4214C16.6232 40.5666 16.5039 40.692 16.3634 40.7903C16.2229 40.8885 16.0641 40.9576 15.8965 40.9935L13.4004 41.598C13.3011 41.6207 13.1994 41.6311 13.0975 41.6288Z" fill="#3F5C6C"/>
<path id="Vector_9" d="M21.8281 39.5139C21.5139 39.5142 21.2105 39.3992 20.9755 39.1908C20.7404 38.9824 20.5899 38.695 20.5526 38.383C20.5152 38.0711 20.5936 37.7563 20.7729 37.4983C20.9522 37.2402 21.2199 37.057 21.5252 36.9831L26.647 35.7396C26.8122 35.6956 26.9845 35.685 27.1538 35.7084C27.3231 35.7319 27.486 35.789 27.6329 35.8763C27.7799 35.9636 27.9079 36.0793 28.0095 36.2168C28.1111 36.3542 28.1843 36.5106 28.2246 36.6767C28.265 36.8428 28.2717 37.0153 28.2445 37.184C28.2173 37.3527 28.1566 37.5143 28.0661 37.6593C27.9756 37.8043 27.857 37.9297 27.7173 38.0283C27.5776 38.1268 27.4197 38.1964 27.2528 38.2331L22.1323 39.4779C22.0326 39.5018 21.9305 39.5139 21.8281 39.5139Z" fill="#3F5C6C"/>
</g>
<path id="Vector_10" d="M65.4502 65.45H70.5835C71.945 65.45 73.2507 64.9092 74.2133 63.9465C75.176 62.9838 75.7169 61.6781 75.7169 60.3167V6.41666C75.7169 5.05521 75.176 3.74953 74.2133 2.78684C73.2507 1.82416 71.945 1.28333 70.5835 1.28333H32.0835C30.7221 1.28333 29.4164 1.82416 28.4537 2.78684C27.491 3.74953 26.9502 5.05521 26.9502 6.41666V60.3167C26.9502 61.6781 27.491 62.9838 28.4537 63.9465C29.4164 64.9092 30.7221 65.45 32.0835 65.45H65.4502Z" fill="#F9EAB0"/>
<path id="Vector_11" d="M65.45 56.4923V74.4333C65.45 74.6871 65.3747 74.9352 65.2337 75.1461C65.0926 75.3571 64.8922 75.5216 64.6578 75.6187C64.4233 75.7158 64.1653 75.7412 63.9164 75.6917C63.6675 75.6422 63.4389 75.5201 63.2594 75.3406L59.9407 72.0219C59.7 71.7813 59.3737 71.6462 59.0334 71.6462C58.6931 71.6462 58.3667 71.7813 58.126 72.0219L54.8074 75.3406C54.6279 75.5201 54.3992 75.6422 54.1503 75.6917C53.9014 75.7412 53.6434 75.7158 53.409 75.6187C53.1745 75.5216 52.9741 75.3571 52.8331 75.1461C52.692 74.9352 52.6168 74.6871 52.6167 74.4333V56.4923H65.45Z" fill="#C03A2B"/>
<path id="Vector_12" d="M60.1882 36.4094L60.4026 36.2721C60.653 36.1115 60.9341 36.005 61.2281 35.9593C61.522 35.9136 61.8223 35.9297 62.1096 36.0067C62.397 36.0836 62.6651 36.2196 62.8969 36.4061C63.1286 36.5926 63.3189 36.8254 63.4556 37.0896L63.5724 37.3167C63.7601 37.6803 64.0481 37.9823 64.4022 38.187C64.7564 38.3917 65.1619 38.4906 65.5705 38.4717L65.8272 38.4589C66.1242 38.4454 66.4208 38.494 66.698 38.6015C66.9751 38.709 67.2269 38.8731 67.4371 39.0833C67.6473 39.2935 67.8114 39.5453 67.9189 39.8225C68.0265 40.0996 68.075 40.3962 68.0615 40.6932L68.0487 40.9499C68.0298 41.3585 68.1287 41.764 68.3334 42.1182C68.5381 42.4723 68.8402 42.7604 69.2037 42.948L69.4308 43.0648C69.695 43.2015 69.9278 43.3918 70.1143 43.6235C70.3008 43.8553 70.4368 44.1234 70.5138 44.4108C70.5907 44.6981 70.6068 44.9984 70.5611 45.2923C70.5154 45.5863 70.4089 45.8674 70.2483 46.1178L70.111 46.3322C69.8899 46.6768 69.7724 47.0777 69.7724 47.4872C69.7724 47.8966 69.8899 48.2975 70.111 48.6422L70.2483 48.8565C70.4089 49.1069 70.5154 49.3881 70.5611 49.682C70.6068 49.9759 70.5907 50.2762 70.5138 50.5635C70.4368 50.8509 70.3008 51.119 70.1143 51.3508C69.9278 51.5826 69.695 51.7729 69.4308 51.9095L69.2037 52.0263C68.8402 52.214 68.5381 52.502 68.3334 52.8562C68.1287 53.2103 68.0298 53.6158 68.0487 54.0245L68.0615 54.2811C68.075 54.5781 68.0265 54.8747 67.9189 55.1519C67.8114 55.4291 67.6473 55.6808 67.4371 55.891C67.2269 56.1013 66.9751 56.2654 66.698 56.3729C66.4208 56.4804 66.1242 56.5289 65.8272 56.5154L65.5705 56.5026C65.1619 56.4838 64.7564 56.5826 64.4022 56.7873C64.0481 56.992 63.7601 57.2941 63.5724 57.6576L63.4556 57.8847C63.3189 58.1489 63.1286 58.3817 62.8969 58.5682C62.6651 58.7547 62.397 58.8907 62.1096 58.9677C61.8223 59.0446 61.522 59.0607 61.2281 59.015C60.9341 58.9693 60.653 58.8628 60.4026 58.7022L60.1882 58.5649C59.8436 58.3438 59.4427 58.2263 59.0332 58.2263C58.6238 58.2263 58.2229 58.3438 57.8782 58.5649L57.6639 58.7022C57.4135 58.8628 57.1323 58.9693 56.8384 59.015C56.5445 59.0607 56.2442 59.0446 55.9569 58.9677C55.6695 58.8907 55.4014 58.7547 55.1696 58.5682C54.9379 58.3817 54.7476 58.1489 54.6109 57.8847L54.4941 57.6576C54.3064 57.2941 54.0184 56.992 53.6642 56.7873C53.3101 56.5826 52.9046 56.4838 52.4959 56.5026L52.2393 56.5154C51.9423 56.5289 51.6457 56.4804 51.3685 56.3729C51.0913 56.2654 50.8396 56.1013 50.6294 55.891C50.4192 55.6808 50.255 55.4291 50.1475 55.1519C50.04 54.8747 49.9915 54.5781 50.005 54.2811L50.0178 54.0245C50.0366 53.6158 49.9378 53.2103 49.7331 52.8562C49.5284 52.502 49.2263 52.214 48.8628 52.0263L48.6357 51.9095C48.3715 51.7729 48.1387 51.5826 47.9522 51.3508C47.7657 51.119 47.6297 50.8509 47.5527 50.5635C47.4758 50.2762 47.4597 49.9759 47.5054 49.682C47.5511 49.3881 47.6576 49.1069 47.8182 48.8565L47.9555 48.6422C48.1766 48.2975 48.2941 47.8966 48.2941 47.4872C48.2941 47.0777 48.1766 46.6768 47.9555 46.3322L47.8182 46.1178C47.6576 45.8674 47.5511 45.5863 47.5054 45.2923C47.4597 44.9984 47.4758 44.6981 47.5527 44.4108C47.6297 44.1234 47.7657 43.8553 47.9522 43.6235C48.1387 43.3918 48.3715 43.2015 48.6357 43.0648L48.8628 42.948C49.2263 42.7604 49.5284 42.4723 49.7331 42.1182C49.9378 41.764 50.0366 41.3585 50.0178 40.9499L50.005 40.6932C49.9915 40.3962 50.04 40.0996 50.1475 39.8225C50.255 39.5453 50.4192 39.2935 50.6294 39.0833C50.8396 38.8731 51.0913 38.709 51.3685 38.6015C51.6457 38.494 51.9423 38.4454 52.2393 38.4589L52.4959 38.4717C52.9046 38.4906 53.3101 38.3917 53.6642 38.187C54.0184 37.9823 54.3064 37.6803 54.4941 37.3167L54.6109 37.0896C54.7476 36.8254 54.9379 36.5926 55.1696 36.4061C55.4014 36.2196 55.6695 36.0836 55.9569 36.0067C56.2442 35.9297 56.5445 35.9136 56.8384 35.9593C57.1323 36.005 57.4135 36.1115 57.6639 36.2721L57.8782 36.4094C58.2229 36.6305 58.6238 36.748 59.0332 36.748C59.4427 36.748 59.8436 36.6305 60.1882 36.4094Z" fill="#E64C3C"/>
<path id="Vector_13" d="M35.9335 11.55H33.3668C33.0265 11.55 32.7 11.4148 32.4594 11.1741C32.2187 10.9335 32.0835 10.607 32.0835 10.2667C32.0835 9.92631 32.2187 9.59989 32.4594 9.35922C32.7 9.11855 33.0265 8.98334 33.3668 8.98334H35.9335C36.2739 8.98334 36.6003 9.11855 36.841 9.35922C37.0816 9.59989 37.2168 9.92631 37.2168 10.2667C37.2168 10.607 37.0816 10.9335 36.841 11.1741C36.6003 11.4148 36.2739 11.55 35.9335 11.55Z" fill="#3F5C6C"/>
<path id="Vector_14" d="M69.2997 11.5499H42.3497C42.0094 11.5499 41.683 11.4147 41.4423 11.1741C41.2016 10.9334 41.0664 10.607 41.0664 10.2666C41.0664 9.92625 41.2016 9.59983 41.4423 9.35916C41.683 9.11848 42.0094 8.98328 42.3497 8.98328H69.2997C69.6401 8.98328 69.9665 9.11848 70.2072 9.35916C70.4479 9.59983 70.5831 9.92625 70.5831 10.2666C70.5831 10.607 70.4479 10.9334 70.2072 11.1741C69.9665 11.4147 69.6401 11.5499 69.2997 11.5499Z" fill="#3F5C6C"/>
<path id="Vector_15" d="M59.0334 53.9C62.5772 53.9 65.45 51.0271 65.45 47.4833C65.45 43.9395 62.5772 41.0667 59.0334 41.0667C55.4895 41.0667 52.6167 43.9395 52.6167 47.4833C52.6167 51.0271 55.4895 53.9 59.0334 53.9Z" fill="#E57E25"/>
<path id="Vector_16" d="M35.9335 17.9667H33.3668C33.0265 17.9667 32.7 17.8315 32.4594 17.5908C32.2187 17.3501 32.0835 17.0237 32.0835 16.6834C32.0835 16.343 32.2187 16.0166 32.4594 15.7759C32.7 15.5352 33.0265 15.4 33.3668 15.4H35.9335C36.2739 15.4 36.6003 15.5352 36.841 15.7759C37.0816 16.0166 37.2168 16.343 37.2168 16.6834C37.2168 17.0237 37.0816 17.3501 36.841 17.5908C36.6003 17.8315 36.2739 17.9667 35.9335 17.9667Z" fill="#3F5C6C"/>
<path id="Vector_17" d="M69.2997 17.9667H42.3497C42.0094 17.9667 41.683 17.8315 41.4423 17.5908C41.2016 17.3501 41.0664 17.0237 41.0664 16.6834C41.0664 16.343 41.2016 16.0166 41.4423 15.7759C41.683 15.5352 42.0094 15.4 42.3497 15.4H69.2997C69.6401 15.4 69.9665 15.5352 70.2072 15.7759C70.4479 16.0166 70.5831 16.343 70.5831 16.6834C70.5831 17.0237 70.4479 17.3501 70.2072 17.5908C69.9665 17.8315 69.6401 17.9667 69.2997 17.9667Z" fill="#3F5C6C"/>
<path id="Vector_18" d="M35.9335 24.3833H33.3668C33.0265 24.3833 32.7 24.2481 32.4594 24.0074C32.2187 23.7668 32.0835 23.4403 32.0835 23.1C32.0835 22.7596 32.2187 22.4332 32.4594 22.1925C32.7 21.9519 33.0265 21.8167 33.3668 21.8167H35.9335C36.2739 21.8167 36.6003 21.9519 36.841 22.1925C37.0816 22.4332 37.2168 22.7596 37.2168 23.1C37.2168 23.4403 37.0816 23.7668 36.841 24.0074C36.6003 24.2481 36.2739 24.3833 35.9335 24.3833Z" fill="#3F5C6C"/>
<path id="Vector_19" d="M69.2997 24.3833H42.3497C42.0094 24.3833 41.683 24.2481 41.4423 24.0074C41.2016 23.7668 41.0664 23.4403 41.0664 23.1C41.0664 22.7596 41.2016 22.4332 41.4423 22.1925C41.683 21.9519 42.0094 21.8167 42.3497 21.8167H69.2997C69.6401 21.8167 69.9665 21.9519 70.2072 22.1925C70.4479 22.4332 70.5831 22.7596 70.5831 23.1C70.5831 23.4403 70.4479 23.7668 70.2072 24.0074C69.9665 24.2481 69.6401 24.3833 69.2997 24.3833Z" fill="#3F5C6C"/>
<path id="Vector_20" d="M35.9335 30.8H33.3668C33.0265 30.8 32.7 30.6648 32.4594 30.4241C32.2187 30.1835 32.0835 29.857 32.0835 29.5167C32.0835 29.1763 32.2187 28.8499 32.4594 28.6092C32.7 28.3685 33.0265 28.2333 33.3668 28.2333H35.9335C36.2739 28.2333 36.6003 28.3685 36.841 28.6092C37.0816 28.8499 37.2168 29.1763 37.2168 29.5167C37.2168 29.857 37.0816 30.1835 36.841 30.4241C36.6003 30.6648 36.2739 30.8 35.9335 30.8Z" fill="#3F5C6C"/>
<path id="Vector_21" d="M48.7664 30.7999H42.3497C42.0094 30.7999 41.683 30.6647 41.4423 30.4241C41.2016 30.1834 41.0664 29.857 41.0664 29.5166C41.0664 29.1762 41.2016 28.8498 41.4423 28.6092C41.683 28.3685 42.0094 28.2333 42.3497 28.2333H48.7664C49.1068 28.2333 49.4332 28.3685 49.6739 28.6092C49.9145 28.8498 50.0497 29.1762 50.0497 29.5166C50.0497 29.857 49.9145 30.1834 49.6739 30.4241C49.4332 30.6647 49.1068 30.7999 48.7664 30.7999Z" fill="#3F5C6C"/>
</g>
</g>
</svg>
