<svg width="125" height="33" viewBox="0 0 125 33" fill="none" xmlns="http://www.w3.org/2000/svg">
<g id="Group 1">
<g id="DOC+">
<path d="M30.6393 16.517C30.6393 18.0534 30.4344 19.5166 30.0247 20.9066C29.615 22.282 29.0371 23.555 28.2909 24.7256C27.5593 25.8961 26.6813 26.9569 25.6571 27.908C24.6329 28.8444 23.4989 29.6419 22.2552 30.3003C21.0261 30.9588 19.7019 31.4709 18.2826 31.8367C16.8779 32.1878 15.4294 32.3634 13.9369 32.3634H0V0.758436H13.9369C15.4294 0.758436 16.8779 0.934019 18.2826 1.28519C19.6873 1.63635 21.0042 2.14115 22.2332 2.79959C23.4769 3.4434 24.6109 4.23352 25.6352 5.16997C26.674 6.10641 27.5593 7.15991 28.2909 8.33047C29.0371 9.48639 29.615 10.7594 30.0247 12.1494C30.4344 13.5248 30.6393 14.9807 30.6393 16.517ZM21.7943 16.517C21.7943 14.8051 21.5821 13.181 21.1578 11.6446C20.7481 10.0936 20.1043 8.73284 19.2264 7.56229C18.3485 6.39173 17.2291 5.4626 15.8683 4.7749C14.5222 4.0872 12.9054 3.74335 11.0179 3.74335H8.71332V29.2907H11.0179C12.8761 29.2907 14.4783 28.9469 15.8244 28.2592C17.1852 27.5568 18.3046 26.6204 19.1825 25.4498C20.075 24.2646 20.7335 22.9039 21.1578 21.3675C21.5821 19.8312 21.7943 18.2143 21.7943 16.517Z" fill="#FFFFF5"/>
<path d="M103.111 8.59384L99.3582 10.1741C99.0655 9.22301 98.6705 8.35241 98.173 7.56229C97.6901 6.77216 97.1049 6.09909 96.4172 5.54308C95.7441 4.97243 94.9759 4.53348 94.1126 4.22621C93.2494 3.9043 92.3056 3.74335 91.2814 3.74335C90.184 3.74335 89.1744 3.92625 88.2525 4.29205C87.3454 4.64322 86.526 5.13339 85.7944 5.76256C85.0774 6.39173 84.4482 7.12333 83.9069 7.95735C83.3655 8.79137 82.9119 9.68392 82.5461 10.635C82.1803 11.5714 81.9096 12.5445 81.734 13.5541C81.5584 14.5637 81.4706 15.5513 81.4706 16.517C81.4706 18.0534 81.6462 19.5824 81.9974 21.1041C82.3632 22.6259 82.9338 23.994 83.7093 25.2084C84.4995 26.4229 85.5164 27.4105 86.7601 28.1714C88.0038 28.9176 89.5109 29.2907 91.2814 29.2907C92.2178 29.2907 93.103 29.1371 93.9371 28.8298C94.7711 28.5079 95.5246 28.0763 96.1977 27.5349C96.8854 26.9789 97.4853 26.3278 97.9974 25.5815C98.5095 24.8353 98.9192 24.0305 99.2265 23.1673L103.023 24.6817C102.467 26.0717 101.707 27.2935 100.741 28.347C99.7752 29.3858 98.6705 30.2491 97.4268 30.9368C96.1977 31.6245 94.8735 32.1366 93.4542 32.4732C92.0495 32.8243 90.6302 32.9999 89.1963 32.9999C87.6453 32.9999 86.1529 32.8097 84.7189 32.4293C83.2996 32.0488 81.9754 31.5075 80.7464 30.8051C79.5173 30.1028 78.3979 29.2541 77.3883 28.2592C76.3934 27.2642 75.5374 26.1595 74.8204 24.945C74.1181 23.7306 73.5694 22.4137 73.1743 20.9944C72.7939 19.5605 72.6037 18.068 72.6037 16.517C72.6037 14.9661 72.7939 13.4809 73.1743 12.0616C73.5694 10.6277 74.1181 9.30349 74.8204 8.08904C75.5374 6.85995 76.3934 5.74793 77.3883 4.75296C78.3979 3.75798 79.5173 2.90933 80.7464 2.207C81.9754 1.50466 83.2996 0.963283 84.7189 0.582853C86.1529 0.202422 87.6453 0.012207 89.1963 0.012207C90.6888 0.012207 92.1446 0.18779 93.5639 0.538957C94.9979 0.890123 96.3294 1.42419 97.5585 2.14115C98.7875 2.84349 99.8776 3.73604 100.829 4.8188C101.794 5.88693 102.555 7.14528 103.111 8.59384Z" fill="#FFFFF5"/>
<path d="M124.818 18.5582H118.914V25.3181H112.395V18.5582H106.491V14.5198H112.395V8.08904H118.914V14.5198H124.818V18.5582Z" fill="#FFFFF5"/>
</g>
<circle id="Ellipse 1" cx="51.7101" cy="16.1818" r="16.1818" fill="#FFC637"/>
<path id="Vector" d="M56.5124 11.5455H54.5124V10.9091C54.5124 10.4028 54.3017 9.91718 53.9266 9.55916C53.5515 9.20114 53.0428 9 52.5124 9H51.179C50.6486 9 50.1399 9.20114 49.7648 9.55916C49.3898 9.91718 49.179 10.4028 49.179 10.9091V11.5455H47.179C46.2953 11.5465 45.4481 11.882 44.8232 12.4785C44.1983 13.075 43.8468 13.8837 43.8457 14.7273V19.8182C43.8468 20.6617 44.1983 21.4705 44.8232 22.067C45.4481 22.6634 46.2953 22.999 47.179 23H56.5124C57.3961 22.999 58.2433 22.6634 58.8682 22.067C59.4931 21.4705 59.8446 20.6617 59.8457 19.8182V14.7273C59.8446 13.8837 59.4931 13.075 58.8682 12.4785C58.2433 11.882 57.3961 11.5465 56.5124 11.5455ZM50.5124 10.9091C50.5124 10.7403 50.5826 10.5785 50.7076 10.4591C50.8327 10.3398 51.0022 10.2727 51.179 10.2727H52.5124C52.6892 10.2727 52.8588 10.3398 52.9838 10.4591C53.1088 10.5785 53.179 10.7403 53.179 10.9091V11.5455H50.5124V10.9091ZM53.8457 17.9091H52.5124V19.1818C52.5124 19.3506 52.4421 19.5125 52.3171 19.6318C52.1921 19.7511 52.0225 19.8182 51.8457 19.8182C51.6689 19.8182 51.4993 19.7511 51.3743 19.6318C51.2493 19.5125 51.179 19.3506 51.179 19.1818V17.9091H49.8457C49.6689 17.9091 49.4993 17.842 49.3743 17.7227C49.2493 17.6034 49.179 17.4415 49.179 17.2727C49.179 17.104 49.2493 16.9421 49.3743 16.8228C49.4993 16.7034 49.6689 16.6364 49.8457 16.6364H51.179V15.3636C51.179 15.1949 51.2493 15.033 51.3743 14.9137C51.4993 14.7943 51.6689 14.7273 51.8457 14.7273C52.0225 14.7273 52.1921 14.7943 52.3171 14.9137C52.4421 15.033 52.5124 15.1949 52.5124 15.3636V16.6364H53.8457C54.0225 16.6364 54.1921 16.7034 54.3171 16.8228C54.4421 16.9421 54.5124 17.104 54.5124 17.2727C54.5124 17.4415 54.4421 17.6034 54.3171 17.7227C54.1921 17.842 54.0225 17.9091 53.8457 17.9091Z" fill="#020043"/>
</g>
</svg>
