<svg width="131" height="131" viewBox="0 0 131 131" fill="none" xmlns="http://www.w3.org/2000/svg">
<g id="Group 12">
<path id="Vector" d="M67.8961 0C66.3962 0 65.1802 1.21602 65.1802 2.71593V62.4645C65.1802 63.9644 66.3962 65.1805 67.8961 65.1805H127.645C129.145 65.1805 130.361 63.9644 130.361 62.4645C130.321 27.9824 102.378 0.0389554 67.8961 0Z" fill="#FFC107"/>
<path id="Vector_2" d="M97.2 115.114L59.7486 66.9674V8.14757C59.7486 6.64766 58.5326 5.43164 57.0327 5.43164C25.5832 5.43164 0 33.4538 0 67.8959C0.0389554 102.378 27.9824 130.322 62.4643 130.36C74.9842 131.333 87.3639 127.191 96.7763 118.878C97.9137 117.945 98.1016 116.276 97.2 115.114Z" fill="#2196F3"/>
<path id="Vector_3" d="M127.644 70.6118H73.3277C71.8278 70.6121 70.612 71.8283 70.6125 73.3283C70.6125 73.9487 70.8252 74.5504 71.215 75.0331L106.521 118.742C106.995 119.329 107.691 119.693 108.444 119.747H108.634C109.321 119.747 109.983 119.487 110.486 119.019C123.138 107.187 130.331 90.6494 130.361 73.3275C130.36 71.8278 129.145 70.6118 127.644 70.6118Z" fill="#4CAF50"/>
</g>
</svg>
