<svg width="133" height="128" viewBox="0 0 133 128" fill="none" xmlns="http://www.w3.org/2000/svg">
<g id="Group">
<path id="Vector" d="M109.663 1.31448C80.796 -0.43816 51.9289 -0.43816 23.0618 1.31448C11.4836 2.01751 2.22479 11.148 1.26565 22.708C-0.421146 43.0385 -0.421146 63.3687 1.26513 83.6992C2.22583 95.2794 11.5155 104.397 23.1147 105.097C27.7188 105.375 32.323 105.608 36.9271 105.797C39.5044 105.903 41.9455 106.983 43.7694 108.806L59.8488 124.886C63.4464 128.483 69.2793 128.483 72.8768 124.886L88.9562 108.806C90.7802 106.983 93.2213 105.904 95.7985 105.797C100.403 105.608 105.007 105.375 109.611 105.097C121.21 104.397 130.5 95.2797 131.46 83.6994C133.147 63.369 133.147 43.0388 131.46 22.7083C130.5 11.148 121.241 2.01751 109.663 1.31448Z" fill="#9DC6FB"/>
<path id="Vector_2" d="M67.7161 127.481C64.9307 127.895 61.9931 127.03 59.8488 124.885L43.7697 108.806C41.9457 106.982 39.5048 105.903 36.9279 105.797C32.324 105.61 27.7201 105.375 23.1159 105.097C11.5152 104.397 2.22735 95.2802 1.26587 83.7007C-0.421958 63.3703 -0.421958 43.0395 1.26587 22.7091C2.18173 11.6665 10.6714 2.84055 21.5217 1.4599C13.9722 4.83816 8.45219 13.4183 7.75798 22.7091C6.24124 43.0395 6.24124 63.3703 7.75798 83.7007C8.62328 95.2802 16.9873 104.397 27.429 105.097C31.5735 105.375 39.7239 105.61 43.8687 105.797C46.1893 105.903 48.3873 106.982 50.0295 108.806L64.5037 124.885C65.8121 126.338 66.7948 127.203 67.7161 127.481Z" fill="#80B4FB"/>
<g id="Group_2">
<path id="Vector_3" d="M74.0347 53.4639L104.977 71.3286C108.995 73.6484 114.018 70.7487 114.018 66.1088V40.819C114.018 36.1791 108.995 33.2794 104.977 35.5992L74.0347 53.4639Z" fill="#21386B"/>
<path id="Vector_4" d="M83.1027 79.1378C68.1559 80.0386 53.2088 80.0386 38.262 79.1378C32.6274 78.7982 28.0979 74.3706 27.6134 68.7464C26.7356 58.558 26.7356 48.3695 27.6134 38.1813C28.0979 32.5574 32.6274 28.1298 38.262 27.7899C53.2088 26.8891 68.1559 26.8891 83.1027 27.7899C88.7373 28.1295 93.2667 32.5571 93.7512 38.1813C94.629 48.3698 94.629 58.5582 93.7512 68.7464C93.2667 74.3706 88.7373 78.7982 83.1027 79.1378Z" fill="#26457D"/>
<path id="Vector_5" d="M93.7523 68.7521C93.2637 74.3708 88.7345 78.7959 83.1025 79.1378C68.1557 80.0378 53.2088 80.0378 38.262 79.1378C32.6298 78.7959 28.1008 74.3708 27.6147 68.7521C29.6471 69.6708 32.1626 70.2476 34.9079 70.3437C52.0897 70.934 69.2745 70.934 86.4566 70.3437C89.2018 70.2478 91.7203 69.6708 93.7523 68.7521Z" fill="#21386B"/>
<path id="Vector_6" d="M71.7659 49.5861L59.8323 42.6961C56.8471 40.9725 53.1157 43.1269 53.1157 46.5738V60.3536C53.1157 63.8006 56.8473 65.955 59.8323 64.2314L71.7659 57.3414C74.7511 55.6183 74.7511 51.3097 71.7659 49.5861Z" fill="#EE596B"/>
</g>
</g>
</svg>
